# xmcd
#
# Track frame offsets: 
#        150
#        7380
#        14550
#        22606
#        30777
#        39255
#        46144
#        53480
#        59095
#        66386
#        71740
#        78962
#        85377
#        92147
#        99150
#        106732
#        114514
#        121511
#        127813
#        135296
#        142586
#        149941
#        156576
#        164277
#        172321
#        180171
#        188901
#        195886
#        202466
#        209462
#        215569
#        220996
#        228099
#        236439
#        243889
#        251817
#        258994
#        265635
#        272756
#        279899
#        287075
#        294319
#        301679
#        309117
#        317444
#        324738
#        332718
#        340093
#        344659
#        351679
#
# Disc length: 4785 seconds
#
# Revision: 1
# Processed by: cddbd v1.5.2PL0 Copyright (c) Steve Scherf et al.
# Submitted via: ExactAudioCopy v1.1
#
DISCID=d312af32
DTITLE=Various Artist - JAZZ THE BEST - Premium 50
DYEAR=2006
DGENRE=Jazz
TTITLE0=Oscar Peterson - Days of Wine and Roses
TTITLE1=Stan Getz and Joao Gilberto - The Girl from Ipanema
TTITLE2=Bill Evans - Someday my Prince will Come
TTITLE3=Charlie Parker - Now's the Time
TTITLE4=Antonio Carlos Jobim - Wave
TTITLE5=Jimmy Smith - The Cat
TTITLE6=West Montgomery and Wynton Kelly - No Blues 
TTITLE7=Walter Wanderley - Summer Samba
TTITLE8=Astrud Gilberto - The Shadow of Your Smile
TTITLE9=Ella Fitzgerald - Mack The Knife
TTITLE10=Lester Young - All of Me
TTITLE11=Count Basie - April in Paris
TTITLE12=Louie Armstrong - What a Wonderful World
TTITLE13=Tal Farlow - Isn't it Romantic
TTITLE14=Bud Powell - Tea for Two
TTITLE15=Junior Mance - Love for Sale
TTITLE16=West Montgomery - California Dreaming
TTITLE17=West  Montgomery - Autum Leaves
TTITLE18=Ella Fitzgerald and Luoie Armstrong - Summertime
TTITLE19=John Coltrane - Say it (Over and Over Again)
TTITLE20=Oliver Nelson - Stolen Moments
TTITLE21=Patti Page - The Tennessee Waltz
TTITLE22=Ramsey Lewis - The "In" Crowd
TTITLE23=Ella Fitzgerald - Too Darn Hot
TTITLE24=Peggy Lee - Black Coffee
TTITLE25=John Coltrane and Johnny Hartman - My One and Only Love
TTITLE26=Sarah Vaughan - A Lover's Concerto
TTITLE27=Dinah Washington - What a Difference a Day Made
TTITLE28=Erroll Garner - Misty
TTITLE29=Helen Merril - You'd Be so Nice to Come Home to
TTITLE30=Louie Armstrong - Hello, Dolly!
TTITLE31=Miles Davis - Generique
TTITLE32=Clifford Brown - Smoke Gets in Your Eyes
TTITLE33=Anita O'Day - Stella by Starlight
TTITLE34=Stan Getz - Alfie
TTITLE35=Mel Tormé - On the Street Where You Live
TTITLE36=Teddy Wilson - Honeysuckle Rose
TTITLE37=Quincy Jones - Soul Bossa Nova
TTITLE38=Chick Corea - Spain
TTITLE39=George Shearing - September in the Rain
TTITLE40=Stan Getz and Joao Gilberto - Desafinado
TTITLE41=Keith Jarred - Death and the Flower
TTITLE42=George Benson - What's New
TTITLE43=Blossom Dearie - Like Someone in love
TTITLE44=Lionel Hampton - Taste of Honey
TTITLE45=Shelly Manne - Take the "A" Train
TTITLE46=McCoy Tyner - Satin Doll
TTITLE47=Billie Holiday - Strange Fruit
TTITLE48=Roy Haynes - Fly Me to the Moon
TTITLE49=Ben Webster - Over the Rainbow
EXTD=
EXTT0=
EXTT1=
EXTT2=
EXTT3=
EXTT4=
EXTT5=
EXTT6=
EXTT7=
EXTT8=
EXTT9=
EXTT10=
EXTT11=
EXTT12=
EXTT13=
EXTT14=
EXTT15=
EXTT16=
EXTT17=
EXTT18=
EXTT19=
EXTT20=
EXTT21=
EXTT22=
EXTT23=
EXTT24=
EXTT25=
EXTT26=
EXTT27=
EXTT28=
EXTT29=
EXTT30=
EXTT31=
EXTT32=
EXTT33=
EXTT34=
EXTT35=
EXTT36=
EXTT37=
EXTT38=
EXTT39=
EXTT40=
EXTT41=
EXTT42=
EXTT43=
EXTT44=
EXTT45=
EXTT46=
EXTT47=
EXTT48=
EXTT49=
PLAYORDER=
